<mxfile host="app.diagrams.net" agent="Mozilla/5.0 (Windows NT 10.0; Win64; x64) AppleWebKit/537.36 (KHTML, like Gecko) Chrome/131.0.0.0 Safari/537.36" version="25.0.3">
  <diagram name="Page-1" id="DynOSWMdqW3juHUYkreI">
    <mxGraphModel dx="1909" dy="949" grid="1" gridSize="10" guides="1" tooltips="1" connect="1" arrows="1" fold="1" page="1" pageScale="1" pageWidth="827" pageHeight="1169" math="0" shadow="0">
      <root>
        <mxCell id="0" />
        <mxCell id="1" parent="0" />
        <mxCell id="Oe-WGm68FH1lk6-HrSJV-3" value="" style="edgeStyle=orthogonalEdgeStyle;rounded=0;orthogonalLoop=1;jettySize=auto;html=1;" edge="1" parent="1" source="Oe-WGm68FH1lk6-HrSJV-1" target="Oe-WGm68FH1lk6-HrSJV-2">
          <mxGeometry relative="1" as="geometry" />
        </mxCell>
        <mxCell id="Oe-WGm68FH1lk6-HrSJV-1" value="เริ่ม" style="ellipse;whiteSpace=wrap;html=1;" vertex="1" parent="1">
          <mxGeometry x="354" y="30" width="120" height="40" as="geometry" />
        </mxCell>
        <mxCell id="Oe-WGm68FH1lk6-HrSJV-5" value="" style="edgeStyle=orthogonalEdgeStyle;rounded=0;orthogonalLoop=1;jettySize=auto;html=1;" edge="1" parent="1" source="Oe-WGm68FH1lk6-HrSJV-2" target="Oe-WGm68FH1lk6-HrSJV-4">
          <mxGeometry relative="1" as="geometry" />
        </mxCell>
        <mxCell id="Oe-WGm68FH1lk6-HrSJV-2" value="รับค่า Number1" style="shape=parallelogram;perimeter=parallelogramPerimeter;whiteSpace=wrap;html=1;fixedSize=1;" vertex="1" parent="1">
          <mxGeometry x="354" y="100" width="120" height="40" as="geometry" />
        </mxCell>
        <mxCell id="Oe-WGm68FH1lk6-HrSJV-7" value="" style="edgeStyle=orthogonalEdgeStyle;rounded=0;orthogonalLoop=1;jettySize=auto;html=1;" edge="1" parent="1" source="Oe-WGm68FH1lk6-HrSJV-4" target="Oe-WGm68FH1lk6-HrSJV-6">
          <mxGeometry relative="1" as="geometry" />
        </mxCell>
        <mxCell id="Oe-WGm68FH1lk6-HrSJV-4" value="รับค่า Number2" style="shape=parallelogram;perimeter=parallelogramPerimeter;whiteSpace=wrap;html=1;fixedSize=1;" vertex="1" parent="1">
          <mxGeometry x="354" y="170" width="120" height="40" as="geometry" />
        </mxCell>
        <mxCell id="Oe-WGm68FH1lk6-HrSJV-9" value="" style="edgeStyle=orthogonalEdgeStyle;rounded=0;orthogonalLoop=1;jettySize=auto;html=1;" edge="1" parent="1" source="Oe-WGm68FH1lk6-HrSJV-6" target="Oe-WGm68FH1lk6-HrSJV-8">
          <mxGeometry relative="1" as="geometry" />
        </mxCell>
        <mxCell id="Oe-WGm68FH1lk6-HrSJV-11" value="" style="edgeStyle=orthogonalEdgeStyle;rounded=0;orthogonalLoop=1;jettySize=auto;html=1;" edge="1" parent="1" source="Oe-WGm68FH1lk6-HrSJV-6" target="Oe-WGm68FH1lk6-HrSJV-10">
          <mxGeometry relative="1" as="geometry" />
        </mxCell>
        <mxCell id="Oe-WGm68FH1lk6-HrSJV-6" value="Number1 &amp;gt; Number2" style="rhombus;whiteSpace=wrap;html=1;" vertex="1" parent="1">
          <mxGeometry x="326" y="240" width="176" height="80" as="geometry" />
        </mxCell>
        <mxCell id="Oe-WGm68FH1lk6-HrSJV-8" value="แสดง&amp;nbsp;Number1 greater than Number2" style="shape=parallelogram;perimeter=parallelogramPerimeter;whiteSpace=wrap;html=1;fixedSize=1;" vertex="1" parent="1">
          <mxGeometry x="530" y="260" width="250" height="40" as="geometry" />
        </mxCell>
        <mxCell id="Oe-WGm68FH1lk6-HrSJV-13" value="" style="edgeStyle=orthogonalEdgeStyle;rounded=0;orthogonalLoop=1;jettySize=auto;html=1;" edge="1" parent="1" source="Oe-WGm68FH1lk6-HrSJV-10" target="Oe-WGm68FH1lk6-HrSJV-12">
          <mxGeometry relative="1" as="geometry" />
        </mxCell>
        <mxCell id="Oe-WGm68FH1lk6-HrSJV-15" value="" style="edgeStyle=orthogonalEdgeStyle;rounded=0;orthogonalLoop=1;jettySize=auto;html=1;" edge="1" parent="1" source="Oe-WGm68FH1lk6-HrSJV-10" target="Oe-WGm68FH1lk6-HrSJV-14">
          <mxGeometry relative="1" as="geometry" />
        </mxCell>
        <mxCell id="Oe-WGm68FH1lk6-HrSJV-10" value="Number1 == Number2" style="rhombus;whiteSpace=wrap;html=1;" vertex="1" parent="1">
          <mxGeometry x="326" y="360" width="176" height="80" as="geometry" />
        </mxCell>
        <mxCell id="Oe-WGm68FH1lk6-HrSJV-12" value="แสดง&amp;nbsp;Number1 equal than Number2" style="shape=parallelogram;perimeter=parallelogramPerimeter;whiteSpace=wrap;html=1;fixedSize=1;" vertex="1" parent="1">
          <mxGeometry x="540" y="380" width="250" height="40" as="geometry" />
        </mxCell>
        <mxCell id="Oe-WGm68FH1lk6-HrSJV-14" value="แสดง&amp;nbsp;Number1 lower than Number2" style="shape=parallelogram;perimeter=parallelogramPerimeter;whiteSpace=wrap;html=1;fixedSize=1;" vertex="1" parent="1">
          <mxGeometry x="289" y="490" width="250" height="40" as="geometry" />
        </mxCell>
        <mxCell id="Oe-WGm68FH1lk6-HrSJV-16" value="จริง" style="text;html=1;align=center;verticalAlign=middle;whiteSpace=wrap;rounded=0;" vertex="1" parent="1">
          <mxGeometry x="490" y="250" width="60" height="30" as="geometry" />
        </mxCell>
        <mxCell id="Oe-WGm68FH1lk6-HrSJV-17" value="จริง" style="text;html=1;align=center;verticalAlign=middle;whiteSpace=wrap;rounded=0;" vertex="1" parent="1">
          <mxGeometry x="490" y="370" width="60" height="30" as="geometry" />
        </mxCell>
        <mxCell id="Oe-WGm68FH1lk6-HrSJV-18" value="เท็จ" style="text;html=1;align=center;verticalAlign=middle;whiteSpace=wrap;rounded=0;" vertex="1" parent="1">
          <mxGeometry x="414" y="440" width="60" height="30" as="geometry" />
        </mxCell>
        <mxCell id="Oe-WGm68FH1lk6-HrSJV-19" value="เท็จ" style="text;html=1;align=center;verticalAlign=middle;whiteSpace=wrap;rounded=0;" vertex="1" parent="1">
          <mxGeometry x="400" y="320" width="60" height="30" as="geometry" />
        </mxCell>
      </root>
    </mxGraphModel>
  </diagram>
</mxfile>
